<mxfile host="app.diagrams.net" modified="2022-07-25T09:37:25.108Z" agent="5.0 (Macintosh; Intel Mac OS X 10_15_7) AppleWebKit/605.1.15 (KHTML, like Gecko) Version/15.5 Safari/605.1.15" etag="u4F3K6NGW94LA0VjI6j3" version="20.0.4" type="github">
  <diagram id="0LEvk2xclRuxLxfBsZIf" name="Page-1">
    <mxGraphModel dx="2893" dy="1160" grid="1" gridSize="10" guides="1" tooltips="1" connect="1" arrows="1" fold="1" page="1" pageScale="1" pageWidth="827" pageHeight="1169" math="0" shadow="0">
      <root>
        <mxCell id="0" />
        <mxCell id="1" parent="0" />
        <mxCell id="Xxuf5ZZHQfM1ku2_JkdN-16" value="" style="rounded=0,5;whiteSpace=wrap;html=1;" vertex="1" parent="1">
          <mxGeometry x="-350" y="90" width="980" height="760" as="geometry" />
        </mxCell>
        <mxCell id="Xxuf5ZZHQfM1ku2_JkdN-1" value="" style="rounded=1;whiteSpace=wrap;html=1;" vertex="1" parent="1">
          <mxGeometry x="-110" y="100" width="670" height="200" as="geometry" />
        </mxCell>
        <mxCell id="Xxuf5ZZHQfM1ku2_JkdN-2" value="" style="rounded=1;whiteSpace=wrap;html=1;" vertex="1" parent="1">
          <mxGeometry x="-110" y="330" width="670" height="200" as="geometry" />
        </mxCell>
        <mxCell id="Xxuf5ZZHQfM1ku2_JkdN-3" value="" style="rounded=1;whiteSpace=wrap;html=1;" vertex="1" parent="1">
          <mxGeometry x="-110" y="560" width="310" height="200" as="geometry" />
        </mxCell>
        <mxCell id="Xxuf5ZZHQfM1ku2_JkdN-4" value="" style="rounded=1;whiteSpace=wrap;html=1;" vertex="1" parent="1">
          <mxGeometry x="250" y="560" width="310" height="200" as="geometry" />
        </mxCell>
        <mxCell id="Xxuf5ZZHQfM1ku2_JkdN-36" style="edgeStyle=orthogonalEdgeStyle;orthogonalLoop=1;jettySize=auto;html=1;strokeWidth=2;curved=1;dashed=1;" edge="1" parent="1" source="Xxuf5ZZHQfM1ku2_JkdN-5" target="Xxuf5ZZHQfM1ku2_JkdN-23">
          <mxGeometry relative="1" as="geometry">
            <Array as="points">
              <mxPoint x="45" y="360" />
              <mxPoint x="494" y="360" />
            </Array>
          </mxGeometry>
        </mxCell>
        <mxCell id="Xxuf5ZZHQfM1ku2_JkdN-5" value="nomad &lt;br&gt;server node" style="sketch=0;points=[[0,0,0],[0.25,0,0],[0.5,0,0],[0.75,0,0],[1,0,0],[0,1,0],[0.25,1,0],[0.5,1,0],[0.75,1,0],[1,1,0],[0,0.25,0],[0,0.5,0],[0,0.75,0],[1,0.25,0],[1,0.5,0],[1,0.75,0]];outlineConnect=0;fontColor=#232F3E;gradientColor=#F78E04;gradientDirection=north;fillColor=#D05C17;strokeColor=#ffffff;dashed=0;verticalLabelPosition=bottom;verticalAlign=top;align=center;html=1;fontSize=12;fontStyle=0;aspect=fixed;shape=mxgraph.aws4.resourceIcon;resIcon=mxgraph.aws4.ec2;" vertex="1" parent="1">
          <mxGeometry x="15" y="390" width="60" height="60" as="geometry" />
        </mxCell>
        <mxCell id="Xxuf5ZZHQfM1ku2_JkdN-32" style="edgeStyle=orthogonalEdgeStyle;rounded=1;orthogonalLoop=1;jettySize=auto;html=1;entryX=0.5;entryY=0;entryDx=0;entryDy=0;entryPerimeter=0;strokeWidth=2;strokeColor=#26BF26;dashed=1;" edge="1" parent="1" source="Xxuf5ZZHQfM1ku2_JkdN-6" target="Xxuf5ZZHQfM1ku2_JkdN-8">
          <mxGeometry relative="1" as="geometry">
            <Array as="points">
              <mxPoint x="420" y="510" />
              <mxPoint x="25" y="510" />
            </Array>
          </mxGeometry>
        </mxCell>
        <mxCell id="Xxuf5ZZHQfM1ku2_JkdN-34" style="edgeStyle=orthogonalEdgeStyle;orthogonalLoop=1;jettySize=auto;html=1;strokeWidth=2;curved=1;dashed=1;" edge="1" parent="1" source="Xxuf5ZZHQfM1ku2_JkdN-6" target="Xxuf5ZZHQfM1ku2_JkdN-23">
          <mxGeometry relative="1" as="geometry">
            <Array as="points">
              <mxPoint x="420" y="360" />
              <mxPoint x="494" y="360" />
            </Array>
          </mxGeometry>
        </mxCell>
        <mxCell id="Xxuf5ZZHQfM1ku2_JkdN-6" value="nomad client node" style="sketch=0;points=[[0,0,0],[0.25,0,0],[0.5,0,0],[0.75,0,0],[1,0,0],[0,1,0],[0.25,1,0],[0.5,1,0],[0.75,1,0],[1,1,0],[0,0.25,0],[0,0.5,0],[0,0.75,0],[1,0.25,0],[1,0.5,0],[1,0.75,0]];outlineConnect=0;fontColor=#232F3E;gradientColor=#F78E04;gradientDirection=north;fillColor=#D05C17;strokeColor=#ffffff;dashed=0;verticalLabelPosition=bottom;verticalAlign=top;align=center;html=1;fontSize=12;fontStyle=0;aspect=fixed;shape=mxgraph.aws4.resourceIcon;resIcon=mxgraph.aws4.ec2;" vertex="1" parent="1">
          <mxGeometry x="390" y="390" width="60" height="60" as="geometry" />
        </mxCell>
        <mxCell id="Xxuf5ZZHQfM1ku2_JkdN-8" value="Fawkes DB" style="sketch=0;points=[[0,0,0],[0.25,0,0],[0.5,0,0],[0.75,0,0],[1,0,0],[0,1,0],[0.25,1,0],[0.5,1,0],[0.75,1,0],[1,1,0],[0,0.25,0],[0,0.5,0],[0,0.75,0],[1,0.25,0],[1,0.5,0],[1,0.75,0]];outlineConnect=0;fontColor=#232F3E;gradientColor=#4D72F3;gradientDirection=north;fillColor=#3334B9;strokeColor=#ffffff;dashed=0;verticalLabelPosition=bottom;verticalAlign=top;align=center;html=1;fontSize=12;fontStyle=0;aspect=fixed;shape=mxgraph.aws4.resourceIcon;resIcon=mxgraph.aws4.rds;" vertex="1" parent="1">
          <mxGeometry x="-7" y="620" width="64" height="64" as="geometry" />
        </mxCell>
        <mxCell id="Xxuf5ZZHQfM1ku2_JkdN-30" style="edgeStyle=orthogonalEdgeStyle;rounded=1;orthogonalLoop=1;jettySize=auto;html=1;strokeWidth=2;strokeColor=#26BF26;dashed=1;" edge="1" parent="1" target="Xxuf5ZZHQfM1ku2_JkdN-22">
          <mxGeometry relative="1" as="geometry">
            <mxPoint x="-233.28883418043233" y="148.5" as="sourcePoint" />
            <Array as="points">
              <mxPoint x="-10" y="149" />
              <mxPoint x="-10" y="203" />
            </Array>
          </mxGeometry>
        </mxCell>
        <mxCell id="Xxuf5ZZHQfM1ku2_JkdN-10" value="Virtual Private Cloud" style="sketch=0;points=[[0,0,0],[0.25,0,0],[0.5,0,0],[0.75,0,0],[1,0,0],[0,1,0],[0.25,1,0],[0.5,1,0],[0.75,1,0],[1,1,0],[0,0.25,0],[0,0.5,0],[0,0.75,0],[1,0.25,0],[1,0.5,0],[1,0.75,0]];outlineConnect=0;fontColor=#232F3E;gradientColor=#945DF2;gradientDirection=north;fillColor=#5A30B5;strokeColor=#ffffff;dashed=0;verticalLabelPosition=bottom;verticalAlign=top;align=center;html=1;fontSize=12;fontStyle=0;aspect=fixed;shape=mxgraph.aws4.resourceIcon;resIcon=mxgraph.aws4.vpc;" vertex="1" parent="1">
          <mxGeometry x="610" y="800" width="78" height="78" as="geometry" />
        </mxCell>
        <mxCell id="Xxuf5ZZHQfM1ku2_JkdN-17" value="Frontend Subnet" style="text;html=1;strokeColor=none;fillColor=none;align=center;verticalAlign=middle;whiteSpace=wrap;rounded=0;" vertex="1" parent="1">
          <mxGeometry x="180" y="530" width="100" height="30" as="geometry" />
        </mxCell>
        <mxCell id="Xxuf5ZZHQfM1ku2_JkdN-18" value="Backend Subnet a" style="text;html=1;strokeColor=none;fillColor=none;align=center;verticalAlign=middle;whiteSpace=wrap;rounded=0;" vertex="1" parent="1">
          <mxGeometry x="-30" y="761" width="130" height="30" as="geometry" />
        </mxCell>
        <mxCell id="Xxuf5ZZHQfM1ku2_JkdN-19" value="Backend Subnet b" style="text;html=1;strokeColor=none;fillColor=none;align=center;verticalAlign=middle;whiteSpace=wrap;rounded=0;" vertex="1" parent="1">
          <mxGeometry x="340" y="760" width="130" height="30" as="geometry" />
        </mxCell>
        <mxCell id="Xxuf5ZZHQfM1ku2_JkdN-21" value="Public Subnet" style="text;html=1;strokeColor=none;fillColor=none;align=center;verticalAlign=middle;whiteSpace=wrap;rounded=0;" vertex="1" parent="1">
          <mxGeometry x="175" y="300" width="100" height="30" as="geometry" />
        </mxCell>
        <mxCell id="Xxuf5ZZHQfM1ku2_JkdN-31" style="edgeStyle=orthogonalEdgeStyle;rounded=1;orthogonalLoop=1;jettySize=auto;html=1;entryX=0;entryY=0.5;entryDx=0;entryDy=0;entryPerimeter=0;strokeWidth=2;strokeColor=#26BF26;dashed=1;" edge="1" parent="1" source="Xxuf5ZZHQfM1ku2_JkdN-22" target="Xxuf5ZZHQfM1ku2_JkdN-6">
          <mxGeometry relative="1" as="geometry">
            <Array as="points">
              <mxPoint x="280" y="202" />
              <mxPoint x="280" y="420" />
            </Array>
          </mxGeometry>
        </mxCell>
        <mxCell id="Xxuf5ZZHQfM1ku2_JkdN-22" value="Network Load Balancer" style="sketch=0;outlineConnect=0;fontColor=#232F3E;gradientColor=none;fillColor=#4D27AA;strokeColor=none;dashed=0;verticalLabelPosition=bottom;verticalAlign=top;align=center;html=1;fontSize=12;fontStyle=0;aspect=fixed;pointerEvents=1;shape=mxgraph.aws4.network_load_balancer;" vertex="1" parent="1">
          <mxGeometry x="57" y="170.5" width="64" height="64" as="geometry" />
        </mxCell>
        <mxCell id="Xxuf5ZZHQfM1ku2_JkdN-35" style="edgeStyle=orthogonalEdgeStyle;orthogonalLoop=1;jettySize=auto;html=1;strokeWidth=2;curved=1;dashed=1;" edge="1" parent="1" source="Xxuf5ZZHQfM1ku2_JkdN-23" target="Xxuf5ZZHQfM1ku2_JkdN-24">
          <mxGeometry relative="1" as="geometry" />
        </mxCell>
        <mxCell id="Xxuf5ZZHQfM1ku2_JkdN-23" value="NAT Gateway" style="sketch=0;outlineConnect=0;fontColor=#232F3E;gradientColor=none;fillColor=#4D27AA;strokeColor=none;dashed=0;verticalLabelPosition=bottom;verticalAlign=top;align=center;html=1;fontSize=12;fontStyle=0;aspect=fixed;pointerEvents=1;shape=mxgraph.aws4.nat_gateway;" vertex="1" parent="1">
          <mxGeometry x="460" y="170.5" width="68" height="68" as="geometry" />
        </mxCell>
        <mxCell id="Xxuf5ZZHQfM1ku2_JkdN-39" style="edgeStyle=orthogonalEdgeStyle;orthogonalLoop=1;jettySize=auto;html=1;entryX=0.625;entryY=0.2;entryDx=0;entryDy=0;entryPerimeter=0;dashed=1;strokeColor=#000000;strokeWidth=2;curved=1;" edge="1" parent="1" source="Xxuf5ZZHQfM1ku2_JkdN-24" target="Xxuf5ZZHQfM1ku2_JkdN-38">
          <mxGeometry relative="1" as="geometry">
            <Array as="points">
              <mxPoint x="290" y="205" />
              <mxPoint x="290" y="40" />
              <mxPoint x="-530" y="40" />
            </Array>
          </mxGeometry>
        </mxCell>
        <mxCell id="Xxuf5ZZHQfM1ku2_JkdN-24" value="Internet Gateway" style="sketch=0;outlineConnect=0;fontColor=#232F3E;gradientColor=none;fillColor=#4D27AA;strokeColor=none;dashed=0;verticalLabelPosition=bottom;verticalAlign=top;align=center;html=1;fontSize=12;fontStyle=0;aspect=fixed;pointerEvents=1;shape=mxgraph.aws4.internet_gateway;" vertex="1" parent="1">
          <mxGeometry x="320" y="175.5" width="59" height="59" as="geometry" />
        </mxCell>
        <mxCell id="Xxuf5ZZHQfM1ku2_JkdN-28" style="edgeStyle=orthogonalEdgeStyle;rounded=1;orthogonalLoop=1;jettySize=auto;html=1;strokeWidth=2;strokeColor=#26BF26;dashed=1;" edge="1" parent="1" source="Xxuf5ZZHQfM1ku2_JkdN-27">
          <mxGeometry relative="1" as="geometry">
            <mxPoint x="-271" y="187" as="targetPoint" />
          </mxGeometry>
        </mxCell>
        <mxCell id="Xxuf5ZZHQfM1ku2_JkdN-27" value="Actor" style="shape=umlActor;verticalLabelPosition=bottom;verticalAlign=top;html=1;outlineConnect=0;" vertex="1" parent="1">
          <mxGeometry x="-670" y="390" width="30" height="60" as="geometry" />
        </mxCell>
        <mxCell id="Xxuf5ZZHQfM1ku2_JkdN-38" value="Internet" style="ellipse;shape=cloud;whiteSpace=wrap;html=1;" vertex="1" parent="1">
          <mxGeometry x="-680" y="100" width="240" height="150" as="geometry" />
        </mxCell>
        <mxCell id="Xxuf5ZZHQfM1ku2_JkdN-40" value="" style="shape=image;verticalLabelPosition=bottom;labelBackgroundColor=default;verticalAlign=top;aspect=fixed;imageAspect=0;image=data:image/svg+xml,PHN2ZyB4bWxucz0iaHR0cDovL3d3dy53My5vcmcvMjAwMC9zdmciIHZpZXdCb3g9IjAgMCAyNTYgMzAwIiBoZWlnaHQ9IjI1MDAiIHdpZHRoPSIyMTMzIj48ZyBmaWxsLXJ1bGU9ImV2ZW5vZGQiIGZpbGw9Im5vbmUiPjxwYXRoIGZpbGw9IiM0NDlCODIiIGQ9Ik0wIDc0LjQzNXYxNDguMTc0bDEyOC42OTYgNzYuNTIxIDIuOTg3LTQuNzU3LTIuOTg3LTE0My44MDhMNC40MjUgNzQuNTIzIDAgNzQuNDM1Ii8+PHBhdGggZmlsbD0iIzlCREI5QyIgZD0iTTI1NiA3My43MzlWMjI0bC0xMjcuMzA0IDc1LjEzVjE1MC41NjVsMTIyLjY0MS03Ni43MTMgNC42NjMtLjExMyIvPjxwYXRoIGZpbGw9IiM1NkNEQUQiIGQ9Ik0xMjggMGwxMjggNzMuNzM5LTEyNy4zMDQgNzkuMzA1TDAgNzQuNDM1IDEyOCAwIi8+PHBhdGggZmlsbD0iI0ZGRiIgZD0iTTE5Mi4yOTMgNTkuMDkxbC00My4yOTIgMjUuMzQxdjUxLjE0OGwtNDMuMzc2LTI1Ljc1Ny00MS43MDkgMjQuNDE1djEwNi45MDZsNDMuMjkyLTI2LjU0OVYxNTcuMDVsNDYuMjM5IDI5LjE5IDM4Ljg0Ni0yMy44MjJWNTkuMDkxIi8+PC9nPjwvc3ZnPg==;" vertex="1" parent="1">
          <mxGeometry x="66" y="370" width="34" height="39.82" as="geometry" />
        </mxCell>
        <mxCell id="Xxuf5ZZHQfM1ku2_JkdN-41" value="" style="shape=image;verticalLabelPosition=bottom;labelBackgroundColor=default;verticalAlign=top;aspect=fixed;imageAspect=0;image=data:image/svg+xml,PHN2ZyB4bWxucz0iaHR0cDovL3d3dy53My5vcmcvMjAwMC9zdmciIHZpZXdCb3g9IjAgMCAyNTYgMzAwIiBoZWlnaHQ9IjI1MDAiIHdpZHRoPSIyMTMzIj48ZyBmaWxsLXJ1bGU9ImV2ZW5vZGQiIGZpbGw9Im5vbmUiPjxwYXRoIGZpbGw9IiM0NDlCODIiIGQ9Ik0wIDc0LjQzNXYxNDguMTc0bDEyOC42OTYgNzYuNTIxIDIuOTg3LTQuNzU3LTIuOTg3LTE0My44MDhMNC40MjUgNzQuNTIzIDAgNzQuNDM1Ii8+PHBhdGggZmlsbD0iIzlCREI5QyIgZD0iTTI1NiA3My43MzlWMjI0bC0xMjcuMzA0IDc1LjEzVjE1MC41NjVsMTIyLjY0MS03Ni43MTMgNC42NjMtLjExMyIvPjxwYXRoIGZpbGw9IiM1NkNEQUQiIGQ9Ik0xMjggMGwxMjggNzMuNzM5LTEyNy4zMDQgNzkuMzA1TDAgNzQuNDM1IDEyOCAwIi8+PHBhdGggZmlsbD0iI0ZGRiIgZD0iTTE5Mi4yOTMgNTkuMDkxbC00My4yOTIgMjUuMzQxdjUxLjE0OGwtNDMuMzc2LTI1Ljc1Ny00MS43MDkgMjQuNDE1djEwNi45MDZsNDMuMjkyLTI2LjU0OVYxNTcuMDVsNDYuMjM5IDI5LjE5IDM4Ljg0Ni0yMy44MjJWNTkuMDkxIi8+PC9nPjwvc3ZnPg==;" vertex="1" parent="1">
          <mxGeometry x="436" y="380" width="34" height="39.82" as="geometry" />
        </mxCell>
        <mxCell id="Xxuf5ZZHQfM1ku2_JkdN-42" value="" style="sketch=0;outlineConnect=0;fontColor=#232F3E;gradientColor=none;fillColor=#4D27AA;strokeColor=none;dashed=0;verticalLabelPosition=bottom;verticalAlign=top;align=center;html=1;fontSize=12;fontStyle=0;aspect=fixed;pointerEvents=1;shape=mxgraph.aws4.route_table;" vertex="1" parent="1">
          <mxGeometry x="-200" y="419.82" width="78" height="76" as="geometry" />
        </mxCell>
        <mxCell id="Xxuf5ZZHQfM1ku2_JkdN-43" value="" style="sketch=0;points=[[0,0,0],[0.25,0,0],[0.5,0,0],[0.75,0,0],[1,0,0],[0,1,0],[0.25,1,0],[0.5,1,0],[0.75,1,0],[1,1,0],[0,0.25,0],[0,0.5,0],[0,0.75,0],[1,0.25,0],[1,0.5,0],[1,0.75,0]];outlineConnect=0;fontColor=#232F3E;gradientColor=#945DF2;gradientDirection=north;fillColor=#5A30B5;strokeColor=#ffffff;dashed=0;verticalLabelPosition=bottom;verticalAlign=top;align=center;html=1;fontSize=12;fontStyle=0;aspect=fixed;shape=mxgraph.aws4.resourceIcon;resIcon=mxgraph.aws4.route_53;" vertex="1" parent="1">
          <mxGeometry x="-310" y="110" width="78" height="78" as="geometry" />
        </mxCell>
        <mxCell id="Xxuf5ZZHQfM1ku2_JkdN-44" value="" style="sketch=0;outlineConnect=0;fontColor=#232F3E;gradientColor=none;fillColor=#4D27AA;strokeColor=none;dashed=0;verticalLabelPosition=bottom;verticalAlign=top;align=center;html=1;fontSize=12;fontStyle=0;aspect=fixed;pointerEvents=1;shape=mxgraph.aws4.route_table;" vertex="1" parent="1">
          <mxGeometry x="-200" y="200" width="78" height="76" as="geometry" />
        </mxCell>
      </root>
    </mxGraphModel>
  </diagram>
</mxfile>
